<?xml version="1.0" encoding="UTF-8"?>
<svg version="1.1" xmlns="http://www.w3.org/2000/svg" width="500" height="500">
<path d="M0 0 C165 0 330 0 500 0 C500 165 500 330 500 500 C335 500 170 500 0 500 C0 335 0 170 0 0 Z " fill="#FEFEFE" transform="translate(0,0)"/>
<path d="M0 0 C165 0 330 0 500 0 C500 165 500 330 500 500 C335 500 170 500 0 500 C0 335 0 170 0 0 Z M60 42 C60 114.27 60 186.54 60 261 C56.7 261 53.4 261 50 261 C50 309.84 50 358.68 50 409 C53.3 409 56.6 409 60 409 C60 412.63 60 416.26 60 420 C181.77 420 303.54 420 429 420 C429 416.37 429 412.74 429 409 C432.3 409 435.6 409 439 409 C439 360.16 439 311.32 439 261 C435.7 261 432.4 261 429 261 C429 188.73 429 116.46 429 42 C307.23 42 185.46 42 60 42 Z " fill="#FEFEFE" transform="translate(0,0)"/>
<path d="M0 0 C119.79 0 239.58 0 363 0 C363 46.86 363 93.72 363 142 C243.21 142 123.42 142 0 142 C0 95.14 0 48.28 0 0 Z " fill="#FDFDFD" transform="translate(63,264)"/>
<path d="M0 0 C45.54 0 91.08 0 138 0 C138 39.6 138 79.2 138 120 C92.46 120 46.92 120 0 120 C0 80.4 0 40.8 0 0 Z " fill="#000000" transform="translate(68,275)"/>
<path d="M0 0 C121.77 0 243.54 0 369 0 C369 72.27 369 144.54 369 219 C372.3 219 375.6 219 379 219 C379 267.84 379 316.68 379 367 C375.7 367 372.4 367 369 367 C369 370.63 369 374.26 369 378 C247.23 378 125.46 378 0 378 C0 374.37 0 370.74 0 367 C-3.3 367 -6.6 367 -10 367 C-10 318.16 -10 269.32 -10 219 C-6.7 219 -3.4 219 0 219 C0 146.73 0 74.46 0 0 Z M3 3 C3 74.28 3 145.56 3 219 C122.79 219 242.58 219 366 219 C366 147.72 366 76.44 366 3 C246.21 3 126.42 3 3 3 Z M3 222 C3 268.86 3 315.72 3 364 C122.79 364 242.58 364 366 364 C366 317.14 366 270.28 366 222 C246.21 222 126.42 222 3 222 Z " fill="#161616" transform="translate(60,42)"/>
<path d="M0 0 C1.57733665 -0.01052147 1.57733665 -0.01052147 3.1865387 -0.02125549 C4.91655373 -0.00978989 4.91655373 -0.00978989 6.68151855 0.00190735 C8.50374184 -0.00356865 8.50374184 -0.00356865 10.36277771 -0.00915527 C13.69554363 -0.01587919 17.02775268 -0.00913725 20.3604641 0.00417686 C23.84642968 0.01548674 27.33238072 0.01138421 30.81835938 0.00942993 C36.67269695 0.00854681 42.52691876 0.01963112 48.38122559 0.03804016 C55.15171199 0.05920812 61.9220288 0.06271779 68.6925416 0.0564782 C75.20284167 0.05078536 81.71308196 0.05642925 88.22337341 0.06765175 C90.99524541 0.07229881 93.76708085 0.07317113 96.53895569 0.0710659 C100.40815559 0.06883418 104.27719386 0.08328536 108.1463623 0.0995636 C109.29970566 0.09708618 110.45304901 0.09460876 111.64134216 0.09205627 C113.21867882 0.10268349 113.21867882 0.10268349 114.82788086 0.11352539 C115.74301201 0.11557826 116.65814316 0.11763113 117.60100555 0.11974621 C119.91394043 0.3742218 119.91394043 0.3742218 122.91394043 2.3742218 C122.25019549 8.20569517 120.82092192 13.62643487 119.16394043 19.2492218 C118.76078613 20.63633362 118.76078613 20.63633362 118.3494873 22.0514679 C117.80084576 23.93636937 117.25008055 25.82065405 116.69714355 27.70429993 C115.99806013 30.08745964 115.30591304 32.47246323 114.61706543 34.8585968 C113.62160039 38.29725751 112.6039833 41.72877995 111.57458496 45.15742493 C111.10362282 46.73774135 110.63915383 48.31999893 110.17907715 49.90351868 C109.41676242 52.52297729 108.63576836 55.13628085 107.85144043 57.7492218 C107.61812012 58.56471497 107.3847998 59.38020813 107.14440918 60.22041321 C106.91237793 60.98015442 106.68034668 61.73989563 106.44128418 62.5226593 C106.24268799 63.19474426 106.0440918 63.86682922 105.83947754 64.5592804 C104.54478606 67.09811882 103.40515774 67.93954367 100.91394043 69.3742218 C98.11411754 69.67476218 95.53624967 69.80476412 92.7364502 69.79414368 C91.91484406 69.80261322 91.09323792 69.81108276 90.24673462 69.81980896 C87.53278087 69.84319406 84.81939353 69.84420079 82.10534668 69.8429718 C80.21731845 69.85007238 78.32929238 69.85777123 76.44126892 69.86604309 C72.48442587 69.8794913 68.52778236 69.8810551 64.57092285 69.87519836 C59.50197434 69.8693014 54.43398335 69.89989196 49.36522007 69.94031525 C45.46610868 69.96617305 41.56722845 69.96907142 37.66804314 69.96542358 C35.79933198 69.96711658 33.93061034 69.97677637 32.06198311 69.99456787 C29.44761311 70.01672068 26.83518891 70.00707564 24.2208252 69.98945618 C23.45027298 70.00271942 22.67972076 70.01598267 21.88581848 70.02964783 C18.00074773 69.96885313 16.12629846 69.53821138 13.01905823 67.13870239 C11.04331831 64.54412329 9.91923633 62.60443522 8.9251709 59.52729797 C8.45976395 58.12510262 8.45976395 58.12510262 7.98495483 56.69458008 C7.67019196 55.69554153 7.35542908 54.69650299 7.03112793 53.66719055 C6.69018097 52.62782852 6.34923401 51.58846649 5.99795532 50.51760864 C4.91402137 47.20342332 3.85099071 43.88297701 2.78894043 40.5617218 C1.71514293 37.25281503 0.63714597 33.94529967 -0.4414978 30.63796997 C-1.10982156 28.58345759 -1.774509 26.52775756 -2.43496704 24.47070312 C-3.80070127 20.22813975 -5.19268936 16.01799716 -6.78869629 11.85591125 C-7.97749926 8.66556138 -8.65788599 6.70987594 -8.08605957 3.3742218 C-5.70663392 0.18997348 -3.87216275 -0.00070976 0 0 Z " fill="#010101" transform="translate(204.0860595703125,96.62577819824219)"/>
<path d="M0 0 C1.22763565 0.00212242 1.22763565 0.00212242 2.48007202 0.00428772 C5.09873075 0.00989335 7.71730454 0.02244677 10.3359375 0.03515625 C12.10937377 0.04017053 13.88281137 0.04473356 15.65625 0.04882812 C20.00784532 0.05986461 24.359377 0.077133 28.7109375 0.09765625 C32.4680492 8.77532956 35.70326316 17.56730986 38.73828125 26.51953125 C39.20879953 27.89712569 39.67971623 29.27458409 40.15100098 30.6519165 C41.39804387 34.29914451 42.64055647 37.94789967 43.88215256 41.59698486 C45.93788206 47.63491059 48.00227286 53.66988577 50.06596565 59.70509338 C50.57916481 61.20604776 51.09220988 62.70705483 51.60510063 64.20811462 C54.80988123 73.5861653 58.04189245 82.95360882 61.3359375 92.30078125 C61.67146133 93.25329773 62.00698517 94.20581421 62.35267639 95.18719482 C63.86126626 99.46431608 65.3767859 103.738861 66.90014648 108.01074219 C67.41918775 109.47718534 67.93815484 110.94365475 68.45703125 112.41015625 C68.89716553 113.64378906 69.3372998 114.87742187 69.79077148 116.1484375 C70.7109375 119.09765625 70.7109375 119.09765625 70.7109375 122.09765625 C71.537546 122.09350818 71.537546 122.09350818 72.38085365 122.08927631 C85.80200866 122.02296572 99.22313489 121.97354265 112.64441872 121.94221973 C119.13491545 121.92656292 125.62529396 121.905324 132.11572266 121.87133789 C138.37916603 121.83874555 144.64249567 121.82080335 150.9060173 121.81302452 C153.29582891 121.80748084 155.68563429 121.79665546 158.07539749 121.78046608 C161.42230947 121.75869397 164.76875127 121.7556893 168.11572266 121.75708008 C169.10403076 121.74629425 170.09233887 121.73550842 171.1105957 121.72439575 C177.3680866 121.75253807 181.70533928 122.57683193 186.6484375 126.72265625 C188.35902966 130.54633284 187.80082651 134.11846417 186.7109375 138.09765625 C184.46504425 141.09218059 183.26224383 141.91388747 179.7109375 143.09765625 C178.03610125 143.18764654 176.35786955 143.2196205 174.68061829 143.21791077 C173.64155334 143.21928543 172.6024884 143.2206601 171.53193665 143.22207642 C170.39258163 143.21848114 169.25322662 143.21488586 168.0793457 143.21118164 C166.27915482 143.21140068 166.27915482 143.21140068 164.44259644 143.21162415 C161.15153218 143.21104645 157.8605305 143.20602779 154.56947732 143.19905019 C151.13015696 143.19280305 147.69083578 143.19221177 144.25151062 143.19102478 C137.73860609 143.18791549 131.22571833 143.1797075 124.71282119 143.16967529 C117.2981429 143.1585017 109.88346382 143.15300056 102.46877921 143.14797986 C87.21615559 143.13752456 71.96354871 143.11993287 56.7109375 143.09765625 C54.48125955 137.60101958 52.30048079 132.10969024 50.38354492 126.49438477 C49.97129669 125.29113556 49.55904846 124.08788635 49.13430786 122.84817505 C48.69498782 121.55764417 48.25568786 120.26710646 47.81640625 118.9765625 C47.34708965 117.60439396 46.87750917 116.23231565 46.40768433 114.86032104 C45.41478503 111.95950588 44.4233334 109.05820219 43.43313599 106.15646362 C40.85665769 98.60636794 38.27220697 91.05900057 35.6875 83.51171875 C35.43123652 82.76315802 35.17497303 82.01459728 34.91094398 81.24335289 C31.59056055 71.54613749 28.24701257 61.85757382 24.859375 52.18359375 C24.50218887 51.16347702 24.14500275 50.14336029 23.7769928 49.09233093 C22.14909737 44.44780699 20.51600454 39.80516323 18.87768555 35.16430664 C18.31296146 33.55746385 17.74826241 31.95061226 17.18359375 30.34375 C16.92851044 29.62621552 16.67342712 28.90868103 16.41061401 28.16940308 C14.7109375 23.32364683 14.7109375 23.32364683 14.7109375 21.09765625 C14.13649902 21.1133667 13.56206055 21.12907715 12.97021484 21.14526367 C10.34222441 21.20801138 7.71439213 21.24677131 5.0859375 21.28515625 C4.18230469 21.31029297 3.27867187 21.33542969 2.34765625 21.36132812 C-3.90036493 21.42973712 -8.34240229 20.74965044 -13.1640625 16.41015625 C-14.82311226 12.9998873 -14.96648812 9.76886606 -14.2890625 6.09765625 C-10.29378362 -0.161614 -6.96839456 -0.0450132 0 0 Z " fill="#040404" transform="translate(133.2890625,61.90234375)"/>
<path d="M0 0 C119.79 0 239.58 0 363 0 C363 2.64 363 5.28 363 8 C243.21 8 123.42 8 0 8 C0 5.36 0 2.72 0 0 Z " fill="#F7F7F7" transform="translate(63,409)"/>
<path d="M0 0 C4.91540048 2.44687337 7.47358593 6.62882402 9.8359375 11.3828125 C11.78303305 17.22409915 11.46515091 23.36270627 9.6484375 29.1953125 C6.60943352 34.53976778 3.92839237 38.46804097 -2.1640625 40.3828125 C-7.96609891 41.08052574 -14.16587145 41.65751441 -19.2265625 38.3203125 C-23.73441271 34.24979104 -25.91932936 30.90245143 -26.5078125 24.84375 C-26.71366462 16.14649773 -26.52890456 10.26532256 -20.7265625 3.5703125 C-14.74119204 -1.53915009 -7.56547639 -2.15766294 0 0 Z " fill="#070707" transform="translate(329.1640625,320.6171875)"/>
<path d="M0 0 C3.9614221 2.97106658 6.9035406 6.08562181 8.5 10.875 C9.63846576 27.65337244 9.63846576 27.65337244 4.5 34.875 C-0.83550226 39.95023386 -5.43974251 40.22487281 -12.55078125 40.15625 C-17.77368637 39.65817163 -20.32053009 37.15275907 -23.75 33.4375 C-28.19106175 26.93451672 -28.23376215 20.54699416 -27.5 12.875 C-26.65576846 9.75083779 -25.44839938 7.44758721 -23.5 4.875 C-23.04882812 4.27558594 -22.59765625 3.67617188 -22.1328125 3.05859375 C-16.28475811 -3.21133521 -7.66168942 -2.46268588 0 0 Z " fill="#040404" transform="translate(168.5,316.125)"/>
<path d="M0 0 C19 0 19 0 27 4 C31.74665072 8.87156258 33.29437776 13.58054336 33.375 20.3125 C33.2548307 26.95936458 32.16161262 31.70630956 27.50390625 36.55859375 C18.99722216 44.04702139 13.18952762 41 0 41 C0 27.47 0 13.94 0 0 Z " fill="#030303" transform="translate(98,315)"/>
<path d="M0 0 C4.05523038 2.85709413 7.51585617 6.46921234 9.75 10.9375 C10.2572965 16.49281248 10.51260422 21.35580236 8.0625 26.4375 C3.14568305 31.75297778 -1.24431617 34.91055266 -8.5625 35.375 C-13.78132685 35.24452933 -17.35001331 33.32572373 -21.25 29.9375 C-25.21788224 24.85047149 -26.67010672 20.70650367 -26.59765625 14.3515625 C-25.8177345 8.93592606 -22.52718254 5.12345521 -18.625 1.5 C-13.04061404 -2.17393813 -6.21098766 -2.0305152 0 0 Z " fill="#030303" transform="translate(220.25,214.0625)"/>
<path d="M0 0 C5.80660759 2.62859416 9.25062582 6.41282703 11.79296875 12.265625 C12.62960508 18.14381011 11.81108744 23.10561563 8.79296875 28.265625 C4.10574541 33.17446646 0.37092446 35.39704802 -6.51953125 35.578125 C-12.41939215 35.50816618 -15.47779212 34.04692047 -19.640625 29.8046875 C-23.89427707 25.05698519 -24.64499209 20.84364406 -24.54296875 14.640625 C-23.82759796 9.5831199 -21.15190912 6.0075591 -17.41015625 2.65625 C-11.85523346 -1.29885502 -6.494334 -2.16094654 0 0 Z " fill="#030303" transform="translate(295.20703125,213.734375)"/>
<path d="M0 0 C2.31 0 4.62 0 7 0 C7 47.52 7 95.04 7 144 C4.69 144 2.38 144 0 144 C0 96.48 0 48.96 0 0 Z " fill="#F4F4F4" transform="translate(429,263)"/>
<path d="M0 0 C2.31 0 4.62 0 7 0 C7 47.52 7 95.04 7 144 C4.69 144 2.38 144 0 144 C0 96.48 0 48.96 0 0 Z " fill="#FAFAFA" transform="translate(53,263)"/>
<path d="M0 0 C20 0 20 0 28 5 C30.83628194 9.25442291 30.51845373 13.00689181 30 18 C28.33540146 21.99503649 26.82442209 23.23001953 23 25 C23.5775 25.98742187 24.155 26.97484375 24.75 27.9921875 C25.500226 29.28632735 26.25021368 30.58060537 27 31.875 C27.3815625 32.52597656 27.763125 33.17695313 28.15625 33.84765625 C31 38.7734375 31 38.7734375 31 41 C27.81417842 41.63716432 25.15630053 41.85987306 22 41 C19.34505764 37.97770712 17.73261572 34.60724913 16 31 C15.34 30.01 14.68 29.02 14 28 C12.35 27.67 10.7 27.34 9 27 C9 31.62 9 36.24 9 41 C6.03 41 3.06 41 0 41 C0 27.47 0 13.94 0 0 Z " fill="#080808" transform="translate(345,320)"/>
<path d="M0 0 C9.24 0 18.48 0 28 0 C28 2.64 28 5.28 28 8 C22.06 8 16.12 8 10 8 C10 10.97 10 13.94 10 17 C14.95 17 19.9 17 25 17 C25 19.31 25 21.62 25 24 C20.05 24 15.1 24 10 24 C10 26.97 10 29.94 10 33 C15.94 33 21.88 33 28 33 C28 35.64 28 38.28 28 41 C18.76 41 9.52 41 0 41 C0 27.47 0 13.94 0 0 Z " fill="#0D0D0D" transform="translate(380,320)"/>
<path d="M0 0 C4.10123413 1.44250304 6.55781774 3.33672661 9 7 C9 8.65 9 10.3 9 12 C5.7 12 2.4 12 -1 12 C-1.66 10.68 -2.32 9.36 -3 8 C-5.31 8.33 -7.62 8.66 -10 9 C-9.67 10.65 -9.34 12.3 -9 14 C-8.41992188 14.18175781 -7.83984375 14.36351562 -7.2421875 14.55078125 C6.42400667 18.94831898 6.42400667 18.94831898 10 25 C10.47195807 28.77566459 10.34492852 31.17600409 8.875 34.6875 C5.66566312 38.64568216 3.12430561 40.73243479 -2.0703125 41.38671875 C-7.13540765 41.55401688 -10.96468331 41.46410748 -15.625 39.375 C-18.26412625 36.73587375 -19.66745285 34.47942868 -21 31 C-21 30.01 -21 29.02 -21 28 C-17.7 28 -14.4 28 -11 28 C-10.34 29.32 -9.68 30.64 -9 32 C-4.9134809 33.1640191 -4.9134809 33.1640191 -1 32 C-0.34227572 28.97065509 -0.34227572 28.97065509 0 26 C-0.79664063 25.82984375 -1.59328125 25.6596875 -2.4140625 25.484375 C-15.32006903 22.53263628 -15.32006903 22.53263628 -19.375 17.1875 C-20.59336757 12.9232135 -20.57421095 9.32975167 -18.8125 5.25 C-13.78527029 -0.99069895 -7.45398484 -0.90709868 0 0 Z " fill="#070707" transform="translate(254,320)"/>
<path d="M0 0 C19 0 19 0 27 4 C31.74665072 8.87156258 33.29437776 13.58054336 33.375 20.3125 C33.2548307 26.95936458 32.16161262 31.70630956 27.50390625 36.55859375 C18.99722216 44.04702139 13.18952762 41 0 41 C0 27.47 0 13.94 0 0 Z M5 5 C5 15.23 5 25.46 5 36 C19.11501535 37.56173762 19.11501535 37.56173762 25 32 C27.99833497 26.72706608 28.91756748 21.94379824 28 16 C26.10734831 10.14906065 24.45909581 8.27545749 19 5 C14.38 5 9.76 5 5 5 Z " fill="#F3F3F3" transform="translate(98,315)"/>
<path d="M0 0 C3.9614221 2.97106658 6.9035406 6.08562181 8.5 10.875 C9.63846576 27.65337244 9.63846576 27.65337244 4.5 34.875 C-0.83550226 39.95023386 -5.43974251 40.22487281 -12.55078125 40.15625 C-17.77368637 39.65817163 -20.32053009 37.15275907 -23.75 33.4375 C-28.19106175 26.93451672 -28.23376215 20.54699416 -27.5 12.875 C-26.65576846 9.75083779 -25.44839938 7.44758721 -23.5 4.875 C-23.04882812 4.27558594 -22.59765625 3.67617188 -22.1328125 3.05859375 C-16.28475811 -3.21133521 -7.66168942 -2.46268588 0 0 Z M-19.5 7.875 C-21.82812642 11.40678362 -21.79905479 14.58198401 -21.8125 18.75 C-21.82925781 19.94367188 -21.84601563 21.13734375 -21.86328125 22.3671875 C-21.32515825 27.56325691 -19.68647925 30.77326927 -15.875 34.3125 C-11.42078192 36.374638 -8.15883298 36.36204447 -3.5 34.875 C0.29546548 31.96783495 2.00464602 29.34794479 3.5 24.875 C4.25108715 18.26153131 3.8717823 12.65519823 0.5 6.875 C-2.67982699 3.8939122 -5.47513968 2.99102192 -9.8125 2.5 C-14.75480563 3.00260735 -16.06012162 4.35512445 -19.5 7.875 Z " fill="#F1F1F1" transform="translate(168.5,316.125)"/>
<path d="M0 0 C9.9 0 19.8 0 30 0 C30 2.64 30 5.28 30 8 C26.37 8 22.74 8 19 8 C19 18.89 19 29.78 19 41 C16.03 41 13.06 41 10 41 C10 30.11 10 19.22 10 8 C6.7 8 3.4 8 0 8 C0 5.36 0 2.72 0 0 Z " fill="#0C0C0C" transform="translate(268,320)"/>
<path d="M0 0 C3.52522312 0.02527042 3.94658317 0.14026052 6.625 2.75 C9.71744194 7.94530246 9.83010231 12.37174162 9.1875 18.375 C7.99541528 21.18181765 6.35327152 23.20922848 4.1875 25.375 C-0.97533349 25.88281969 -0.97533349 25.88281969 -3.8125 25.375 C-7.77568413 21.51343598 -8.98442492 18.54083996 -9.125 13.125 C-9.09016517 6.48896411 -7.24153749 0.71228238 0 0 Z " fill="#F9F9F9" transform="translate(320.8125,327.625)"/>
<path d="M0 0 C9.37226277 -0.31240876 9.37226277 -0.31240876 12 2 C12.9375 4.9375 12.9375 4.9375 13 8 C11.21220342 10.59230504 10.03997185 10.98667605 7 12 C4.66700175 12.03954234 2.33291811 12.04401732 0 12 C0 8.04 0 4.08 0 0 Z " fill="#E7E7E7" transform="translate(354,328)"/>
</svg>
